<svg width="50" height="40" viewBox="0 0 50 40" fill="none" xmlns="http://www.w3.org/2000/svg">
<path d="M36.1395 4.96047C32.1409 1.76164 26.8248 0 21.17 0C15.5152 0 10.199 1.76164 6.20059 4.96047C2.20205 8.15922 0 12.4122 0 16.9359C0 21.4598 2.20205 25.7127 6.20059 28.9115C10.199 32.1102 15.5153 33.872 21.17 33.872C26.8247 33.872 32.1409 32.1102 36.1395 28.9115C40.1379 25.7127 42.34 21.4598 42.34 16.9359C42.3399 12.4122 40.1379 8.15922 36.1395 4.96047ZM21.1699 30.6403C11.7241 30.6403 4.03945 24.4926 4.03945 16.9359C4.03945 9.3793 11.7242 3.23156 21.17 3.23156C30.6158 3.23156 38.3004 9.3793 38.3004 16.9359C38.3004 24.4926 30.6157 30.6403 21.1699 30.6403Z" fill="black"/>
<path d="M49.4085 37.2416L36.131 26.6197C35.3422 25.9887 34.0634 25.9887 33.2746 26.6197C32.4859 27.2507 32.4859 28.2737 33.2746 28.9048L46.5521 39.5267C46.9464 39.8423 47.4634 40 47.9803 40C48.4972 40 49.0142 39.8423 49.4085 39.5267C50.1972 38.8957 50.1972 37.8727 49.4085 37.2416Z" fill="black"/>
</svg>
